<svg xmlns="http://www.w3.org/2000/svg" xmlns:xlink="http://www.w3.org/1999/xlink" viewBox="0 0 499 620.1"><defs><style>.cls-1{opacity:0.3;}.cls-1,.cls-10,.cls-14,.cls-16,.cls-20,.cls-27,.cls-28,.cls-31{isolation:isolate;}.cls-2,.cls-31,.cls-8{fill:#fff;}.cls-19,.cls-24,.cls-26,.cls-29,.cls-3,.cls-30,.cls-9{fill:none;}.cls-19,.cls-22,.cls-3,.cls-7,.cls-8{stroke:#000;}.cls-19,.cls-22,.cls-23,.cls-24,.cls-25,.cls-26,.cls-29,.cls-3,.cls-30,.cls-7,.cls-8{stroke-miterlimit:10;}.cls-22,.cls-3,.cls-7,.cls-8{stroke-width:0.25px;}.cls-4{fill:#aad5e5;}.cls-5{fill:#010202;}.cls-25,.cls-6{fill:#9cb4ec;}.cls-23,.cls-7{fill:#f5f4f5;}.cls-10{font-size:40px;}.cls-10,.cls-14{font-family:Quicksand-Medium, Quicksand;font-weight:500;}.cls-11{letter-spacing:0em;}.cls-12{letter-spacing:0.01em;}.cls-13{letter-spacing:0em;}.cls-14{font-size:32px;}.cls-15{letter-spacing:0em;}.cls-16,.cls-20{font-size:13px;}.cls-16{font-family:Quicksand-Regular, Quicksand;}.cls-17{letter-spacing:0em;}.cls-18{letter-spacing:0.01em;}.cls-20,.cls-27{font-family:ArialMT, Arial;}.cls-21{fill:#a2b3da;}.cls-22{fill:url(#Naamloos_verloop_2);}.cls-23,.cls-24,.cls-25,.cls-30{stroke:#9cb4ec;}.cls-23,.cls-25,.cls-29,.cls-30{stroke-width:2px;}.cls-26{stroke:#fff;}.cls-27,.cls-32{font-size:12px;}.cls-29{stroke:url(#Naamloos_verloop_2-2);}.cls-31{font-size:36px;}.cls-31,.cls-32{font-family:Quicksand-Bold, Quicksand;font-weight:700;}.cls-33{letter-spacing:-0.02em;}</style><linearGradient id="Naamloos_verloop_2" x1="259.05" y1="469.69" x2="259.05" y2="539.99" gradientTransform="matrix(1, 0, 0, -1, 0, 682.09)" gradientUnits="userSpaceOnUse"><stop offset="0.15" stop-color="#fff"/><stop offset="0.82" stop-color="#aad5e5"/></linearGradient><linearGradient id="Naamloos_verloop_2-2" x1="361.04" y1="96.17" x2="383.48" y2="96.17" xlink:href="#Naamloos_verloop_2"/></defs><g id="Laag_2" data-name="Laag 2"><g id="Laag_1-2" data-name="Laag 1"><image class="cls-1" width="499" height="189" transform="translate(0 293)" xlink:href="../../../Documents/Leerjaar%202/Blok%20Tech/Tech/60806FADAC52CA2A.png"/><path class="cls-2" d="M464.2,459.1H20.7a12,12,0,0,1-12-12V313.4a12,12,0,0,1,12-12H464.2a12,12,0,0,1,12,12V447.1A12,12,0,0,1,464.2,459.1Z"/><path class="cls-3" d="M464.2,459.1H20.7a12,12,0,0,1-12-12V313.4a12,12,0,0,1,12-12H464.2a12,12,0,0,1,12,12V447.1A12,12,0,0,1,464.2,459.1Z"/><path class="cls-4" d="M132.4,40.5h44.3a13,13,0,0,1,13,13V97.8a13,13,0,0,1-13,13H132.4a13,13,0,0,1-13-13V53.5A13,13,0,0,1,132.4,40.5Z"/><path class="cls-5" d="M233,40.5h44.3a13,13,0,0,1,13,13V97.8a13,13,0,0,1-13,13H233a13,13,0,0,1-13-13V53.5A13,13,0,0,1,233,40.5Z"/><path class="cls-6" d="M31.8,40.5H76.1a13,13,0,0,1,13,13V97.8a13,13,0,0,1-13,13H31.8a13,13,0,0,1-13-13V53.5A13.1,13.1,0,0,1,31.8,40.5Z"/><path class="cls-7" d="M30.8,142.1H75a13,13,0,0,1,13,13v44.3a13,13,0,0,1-13,13H30.8a13,13,0,0,1-13-13V155.1A13,13,0,0,1,30.8,142.1Z"/><path class="cls-8" d="M132.4,142.1h44.3a13,13,0,0,1,13,13v44.3a13,13,0,0,1-13,13H132.4a13,13,0,0,1-13-13V155.1A13,13,0,0,1,132.4,142.1Z"/><path d="M20.9,7.6h2.2V2.8H21.3V1.6A5.58,5.58,0,0,0,23.6.8H25V7.5h1.9V9h-6V7.6Z"/><path d="M30,7.8a1.5,1.5,0,1,1,3,0,1.42,1.42,0,0,1-1.5,1.5A1.47,1.47,0,0,1,30,7.8Z"/><path d="M44.1.7H46V4.2h.1L48.6.7h2.1L46,6.9V9.2H44.1V.7Zm2.8,4.5L48,3.7l3,5.4H48.9Z"/><path d="M53.7,6.6V1.5h-2V0h3.9V6.7a1,1,0,0,0,1.1,1.1,4.4,4.4,0,0,0,1-.2L58.1,9a5.82,5.82,0,0,1-1.9.3C54.5,9.3,53.7,8.3,53.7,6.6Z"/><path d="M59.5,5.9a3.31,3.31,0,0,1,3.4-3.4,2.81,2.81,0,0,1,3,3.1c0,.3-.1.7-.1.9H60.9V5.2h3.6l-.3.4c0-1-.4-1.6-1.3-1.6s-1.6.6-1.6,1.9.7,1.9,2,1.9A5.26,5.26,0,0,0,65,7.4l.6,1.2a4.7,4.7,0,0,1-2.6.8A3.42,3.42,0,0,1,59.5,5.9Z"/><path d="M67.4,6.7v-4h1.9V6.4c0,.8.2,1.2.9,1.2a1.42,1.42,0,0,0,1.2-.7V2.7h1.9V9.1H71.7l-.1-.9h-.1a2.66,2.66,0,0,1-2.2,1.1C68.1,9.3,67.4,8.3,67.4,6.7Z"/><path d="M75.9,2.7h1.6l.1,1.4h0a2.92,2.92,0,0,1,2.6-1.6,1.92,1.92,0,0,1,1.2.3L81,4.4a4.25,4.25,0,0,0-1.1-.2,2.43,2.43,0,0,0-2.2,1.6V9.1H75.8l.1-6.4Z"/><path d="M82.9,5.9a3.31,3.31,0,0,1,3.4-3.4,2.81,2.81,0,0,1,3,3.1c0,.3-.1.7-.1.9H84.3V5.2h3.6l-.3.4c0-1-.4-1.6-1.3-1.6s-1.6.6-1.6,1.9.7,1.9,2,1.9a5.26,5.26,0,0,0,1.7-.4L89,8.6a4.7,4.7,0,0,1-2.6.8A3.42,3.42,0,0,1,82.9,5.9Z"/><path d="M91,2.7h1.6l.1.9h.1a3,3,0,0,1,2.2-1c1.5,0,2.1,1,2.1,2.6v4H95.2V5.5c0-.9-.2-1.2-.9-1.2A1.57,1.57,0,0,0,93,5V9.3H91.1L91,2.7Z"/><path d="M18.6,276.4c2.2-1.8,3.7-3.1,3.7-4.2,0-.7-.5-1.1-1.3-1.1a2.24,2.24,0,0,0-1.5.8l-.9-.9a3.57,3.57,0,0,1,2.7-1.2,2.45,2.45,0,0,1,2.7,2.4c0,1.3-1.3,2.6-2.8,3.9.4,0,1-.1,1.4-.1h1.8v1.5H18.7l-.1-1.1Z"/><path d="M27.3,276.2a1.4,1.4,0,1,1,1.4,1.4A1.43,1.43,0,0,1,27.3,276.2Z"/><path d="M35,271.1H32.7v-1.5h6.5v1.5H36.9v6.3H35.1l-.1-6.3Z"/><path d="M40.3,279.6l.3-1.4a.9.9,0,0,0,.5.1c.7,0,1.1-.3,1.2-.8l.1-.3-2.6-5.8h1.8l1,2.6.6,1.8h.1l.6-1.8.9-2.6h1.6l-2.3,6c-.6,1.5-1.3,2.3-2.8,2.3A3.08,3.08,0,0,1,40.3,279.6Z"/><path d="M47.6,271.5H49l.1.6h0a3,3,0,0,1,1.8-.8c1.5,0,2.4,1.2,2.4,3,0,2-1.2,3.2-2.6,3.2a2.4,2.4,0,0,1-1.5-.6h0l.1,1v1.7H47.5l.1-8.1Zm3.9,2.9c0-1.1-.3-1.6-1.1-1.6a1.82,1.82,0,0,0-1.1.5v2.4a1.43,1.43,0,0,0,1,.4C51,276.1,51.5,275.6,51.5,274.4Z"/><path d="M54.5,274.4a3,3,0,1,1,3,3.1A3,3,0,0,1,54.5,274.4Zm4.2,0c0-1-.4-1.7-1.2-1.7s-1.2.7-1.2,1.7.4,1.7,1.2,1.7S58.7,275.5,58.7,274.4Z"/><path d="M61.7,278.4a1.35,1.35,0,0,1,.9-1.2v-.1a1.17,1.17,0,0,1-.6-1,1.51,1.51,0,0,1,.7-1.1v-.1a1.87,1.87,0,0,1-.8-1.5,2.33,2.33,0,0,1,2.6-2.2c.3,0,.7.1,1,.1h2.4v1.3H66.7a1.91,1.91,0,0,1,.3.8c0,1.4-1.1,2-2.4,2a2.49,2.49,0,0,1-.8-.1c-.2.1-.3.2-.3.4s.3.4,1,.4h1.1c1.6,0,2.4.4,2.4,1.5s-1.4,2.1-3.6,2.1C62.9,279.9,61.7,279.5,61.7,278.4Zm4.6-.3c0-.4-.4-.5-1.1-.5h-.8a2.22,2.22,0,0,1-.9-.1.72.72,0,0,0-.4.6c0,.5.6.7,1.5.7S66.3,278.5,66.3,278.1Zm-.9-4.6a.92.92,0,0,0-.9-1,.87.87,0,0,0-.9,1,.91.91,0,1,0,1.8,0Z"/><path d="M69.7,271.5h1.5l.1,1.3h0a2.83,2.83,0,0,1,2.4-1.5,3.09,3.09,0,0,1,1.1.2l-.4,1.5a3.59,3.59,0,0,0-1.1-.2,2.27,2.27,0,0,0-2,1.4v3.1H69.5l.2-5.8Z"/><path d="M76.2,275.8c0-1.3,1.1-2,3.9-2.2a1.17,1.17,0,0,0-1.3-.9,3.49,3.49,0,0,0-1.8.6l-.6-1.2a5.38,5.38,0,0,1,2.8-.8,2.43,2.43,0,0,1,2.7,2.7v3.4H80.5l-.1-.7h0a3.44,3.44,0,0,1-2.1.8A1.76,1.76,0,0,1,76.2,275.8Zm4-.2v-1c-1.8.1-2.2.5-2.2,1s.3.6.8.6A2.16,2.16,0,0,0,80.2,275.6Z"/><path d="M83.6,271.5H85l.1.6h0a3,3,0,0,1,1.8-.8c1.5,0,2.4,1.2,2.4,3,0,2-1.2,3.2-2.6,3.2a2.4,2.4,0,0,1-1.5-.6h0l.1,1v1.7H83.5l.1-8.1Zm3.9,2.9c0-1.1-.4-1.6-1.1-1.6a1.82,1.82,0,0,0-1.1.5v2.4a1.43,1.43,0,0,0,1,.4C87,276.1,87.5,275.6,87.5,274.4Z"/><path d="M90.8,269h1.8v2l-.1,1.1h0a2.53,2.53,0,0,1,2-.9c1.3,0,1.9.9,1.9,2.4v3.7H94.6v-3.5c0-.8-.2-1.1-.9-1.1a1.56,1.56,0,0,0-1.2.6v4H90.7l.1-8.3Z"/><path d="M97.9,279.6l.3-1.4a.9.9,0,0,0,.5.1c.7,0,1.1-.3,1.2-.8l.1-.3-2.6-5.8h1.8l1,2.6.6,1.8h.1l.6-1.8.9-2.6h1.7l-2.3,6c-.6,1.5-1.3,2.3-2.8,2.3A3.42,3.42,0,0,1,97.9,279.6Z"/><rect class="cls-9" x="19.4" y="319" width="193.5" height="36.1"/><text class="cls-10" transform="translate(19.41 342.6)">Quic<tspan class="cls-11" x="83.36" y="0">k</tspan><tspan class="cls-12" x="105.36" y="0">s</tspan><tspan class="cls-13" x="124.76" y="0">and</tspan></text><rect class="cls-9" x="19.4" y="367.3" width="193.5" height="36.1"/><text class="cls-14" transform="translate(19.41 385.27)">Quic<tspan class="cls-15" x="66.69" y="0">k</tspan><tspan class="cls-12" x="84.29" y="0">s</tspan><tspan x="99.81" y="0">and</tspan></text><text class="cls-16" transform="translate(20.71 426.71)">Quic<tspan class="cls-17" x="26.94" y="0">k</tspan><tspan class="cls-18" x="33.83" y="0">s</tspan><tspan x="40.03" y="0">and, Arial</tspan></text><line class="cls-19" x1="19.4" y1="350.8" x2="446" y2="350.8"/><line class="cls-19" x1="19.4" y1="391.7" x2="446" y2="391.7"/><line class="cls-19" x1="19.4" y1="431.6" x2="446" y2="431.6"/><rect class="cls-9" x="418.6" y="326" width="39" height="14.8"/><text class="cls-20" transform="translate(418.62 335.35)">40px</text><rect class="cls-9" x="417.2" y="366.9" width="39" height="14.8"/><text class="cls-20" transform="translate(417.2 376.21)">32px</text><rect class="cls-9" x="399.8" y="408.1" width="51.8" height="18.1"/><text class="cls-20" transform="translate(399.79 417.45)">13.3xpx</text><rect class="cls-21" x="21.2" y="14" width="99.3" height="2.2"/><rect class="cls-6" x="18.2" y="281.6" width="99.2" height="2.2"/><path class="cls-22" d="M236.9,142.1h44.3a13,13,0,0,1,13,13v44.3a13,13,0,0,1-13,13H236.9a13,13,0,0,1-13-13V155.1A12.91,12.91,0,0,1,236.9,142.1Z"/><path d="M22.7,520.5l.8-1.1a3.26,3.26,0,0,0,1.9.8c.8,0,1.4-.3,1.4-.9s-.5-1.1-2.3-1.1V517c1.5,0,2.1-.4,2.1-1s-.4-.8-1.1-.8a2.13,2.13,0,0,0-1.6.7l-.9-1.1a4,4,0,0,1,2.6-1c1.7,0,2.8.8,2.8,2.1,0,.8-.5,1.3-1.5,1.7h0a1.93,1.93,0,0,1,1.7,1.9c0,1.4-1.4,2.2-3,2.2A4.59,4.59,0,0,1,22.7,520.5Z"/><path d="M31.6,520.2a1.4,1.4,0,1,1,1.4,1.4A1.37,1.37,0,0,1,31.6,520.2Z"/><path d="M37.5,519.9h1.8v-4.8H37.5v-1.5h5.4v1.5H41.1v4.8h1.8v1.5H37.5Z"/><path d="M44.6,518.5a3.42,3.42,0,0,1,5.6-2.3l-.8,1.1a2.35,2.35,0,0,0-1.3-.5,1.7,1.7,0,1,0,0,3.4,3.14,3.14,0,0,0,1.6-.6l.7,1.1a3.78,3.78,0,0,1-2.4.9A3.13,3.13,0,0,1,44.6,518.5Z"/><path d="M51.6,518.5a3,3,0,1,1,3,3.1A3,3,0,0,1,51.6,518.5Zm4.2,0c0-1-.4-1.7-1.2-1.7s-1.2.7-1.2,1.7.4,1.7,1.2,1.7S55.8,519.5,55.8,518.5Z"/><path d="M59.1,515.5h1.4l.1.8h.1a2.93,2.93,0,0,1,2.1-.9c1.3,0,1.9.9,1.9,2.4v3.7H62.9V518c0-.8-.2-1.1-.9-1.1a1.56,1.56,0,0,0-1.2.6v4H59l.1-6Z"/><path d="M66.1,518.4a3,3,0,0,1,3.1-3.1,2.65,2.65,0,0,1,2.8,2.9c0,.3-.1.6-.1.8H67.4v-1.2h3.3l-.3.3q0-1.5-1.2-1.5c-.9,0-1.4.6-1.4,1.8a1.63,1.63,0,0,0,1.8,1.8,4.19,4.19,0,0,0,1.5-.4l.6,1.1a5.13,5.13,0,0,1-2.4.7A3,3,0,0,1,66.1,518.4Z"/><path d="M73.5,515.5h1.4l.1.8h.1a2.93,2.93,0,0,1,2.1-.9c1.3,0,1.9.9,1.9,2.4v3.7H77.3V518c0-.8-.2-1.1-.9-1.1a1.56,1.56,0,0,0-1.2.6v4H73.4l.1-6Z"/><rect class="cls-6" x="17.5" y="525.6" width="99.3" height="2.2"/><circle class="cls-23" cx="42.9" cy="570.9" r="24"/><path class="cls-24" d="M42.9,561.5a7.39,7.39,0,0,0-3.8-4.5c-3.2-1.4-6.8.4-8.6,2.5-2.1,2.4-2,5.5-2,6.9a14.7,14.7,0,0,0,2.1,6.7,32,32,0,0,0,4.5,6.5c1.9,2.2,4.4,5.1,7.7,8.3a70.4,70.4,0,0,0,7.9-8.4,33.15,33.15,0,0,0,4.7-7,14.36,14.36,0,0,0,1.8-6.5c0-1.6.1-4.8-2.3-7.2-1.8-1.8-5.2-3.2-8.3-1.8A8.06,8.06,0,0,0,42.9,561.5Z"/><polyline class="cls-24" points="43 561.4 41.9 565 44.2 565.6 41.4 568 45.6 571.5 42.4 575.3 45.6 575.3 41.4 582 43.5 585.2 42.8 588"/><circle class="cls-25" cx="105.1" cy="571.5" r="24"/><path class="cls-26" d="M105.1,562.5a7.39,7.39,0,0,0-3.8-4.5c-3.2-1.4-6.8.4-8.6,2.5-2.1,2.4-2,5.5-2,6.9a14.7,14.7,0,0,0,2.1,6.7,32,32,0,0,0,4.5,6.5c1.9,2.2,4.4,5.1,7.7,8.3a70.4,70.4,0,0,0,7.9-8.4,33.15,33.15,0,0,0,4.7-7,14.36,14.36,0,0,0,1.8-6.5c0-1.6.1-4.8-2.3-7.2-1.8-1.8-5.2-3.2-8.3-1.8A8.06,8.06,0,0,0,105.1,562.5Z"/><rect class="cls-9" x="18.5" y="116.1" width="70.6" height="13.7"/><text class="cls-27" transform="translate(31.32 124.61)">#9Cb4EC</text><rect class="cls-9" x="225.1" y="217.2" width="69.1" height="25.6"/><g class="cls-28"><text class="cls-27" transform="translate(236.23 225.72)">#AAD5E5</text><text class="cls-27" transform="translate(237.13 240.12)">/#FFFFFF</text></g><rect class="cls-9" x="125.5" y="218.1" width="60.1" height="12.6"/><text class="cls-27" transform="translate(134.99 226.62)">#FFFFFF</text><rect class="cls-9" x="21" y="218.1" width="60.1" height="12.6"/><text class="cls-27" transform="translate(30.02 226.62)">#F5F4F5</text><rect class="cls-9" x="225.1" y="116.6" width="60.1" height="12.6"/><text class="cls-27" transform="translate(231.79 125.19)">#000000</text><rect class="cls-9" x="125.5" y="116.6" width="60.1" height="12.6"/><text class="cls-27" transform="translate(132.07 125.12)">#AAD5E5</text><rect class="cls-4" x="234.72" y="543.4" width="197.8" height="76.7"/><g id="Laag_2-2" data-name="Laag 2"><path class="cls-29" d="M382.52,569.5a8.08,8.08,0,0,0-2.6-3.7,8.72,8.72,0,0,0-4.6-2.3c-4.3-.9-7.8,1.9-8.6,2.6a13.31,13.31,0,0,0-3.6,4.5,11.33,11.33,0,0,0-1,5,19.72,19.72,0,0,0,1.1,7.8,25.56,25.56,0,0,0,2.7,5.5,61.2,61.2,0,0,0,4.9,6.8c.9,1,3.9,4.9,8.6,9.8,1.3,1.4,2.4,2.4,3.3,3.3"/></g><g id="Laag_2-3" data-name="Laag 2"><path class="cls-30" d="M383.22,608.6c.9-.9,2-1.9,3.3-3.3,4.7-4.9,7.8-8.8,8.6-9.8a53.13,53.13,0,0,0,4.9-6.8,25.56,25.56,0,0,0,2.7-5.5,19.72,19.72,0,0,0,1.1-7.8,11.33,11.33,0,0,0-1-5,13.17,13.17,0,0,0-3.6-4.5c-.9-.7-4.3-3.4-8.6-2.6a8.72,8.72,0,0,0-4.6,2.3,8.62,8.62,0,0,0-2.6,3.7"/></g><rect class="cls-9" x="256.82" y="568.7" width="110.5" height="34.4"/><text class="cls-31" transform="translate(262.04 594.47)">Lufmi</text><rect class="cls-6" x="235.3" y="526.7" width="99.3" height="2.2"/><text class="cls-32" transform="translate(236.27 520.89)">4. Lo<tspan class="cls-33" x="28.96" y="0">g</tspan><tspan x="36.31" y="0">o</tspan></text></g></g></svg>