<svg id="Laag_1" data-name="Laag 1" xmlns="http://www.w3.org/2000/svg" xmlns:xlink="http://www.w3.org/1999/xlink" viewBox="0 0 631.7 628.49"><defs><style>.cls-1{opacity:0.3;}.cls-1,.cls-10,.cls-14,.cls-16,.cls-20,.cls-28,.cls-29,.cls-32{isolation:isolate;}.cls-2,.cls-32,.cls-8{fill:#fff;}.cls-19,.cls-24,.cls-26,.cls-27,.cls-3,.cls-30,.cls-31,.cls-9{fill:none;}.cls-19,.cls-22,.cls-3,.cls-7,.cls-8{stroke:#000;}.cls-19,.cls-22,.cls-23,.cls-24,.cls-25,.cls-26,.cls-27,.cls-3,.cls-30,.cls-31,.cls-7,.cls-8{stroke-miterlimit:10;}.cls-22,.cls-3,.cls-7,.cls-8{stroke-width:0.25px;}.cls-4{fill:#aad5e5;}.cls-5{fill:#010202;}.cls-25,.cls-6{fill:#9cb4ec;}.cls-23,.cls-7{fill:#f5f4f5;}.cls-10{font-size:40px;}.cls-10,.cls-14{font-family:Quicksand-Medium, Quicksand;font-weight:500;}.cls-11{letter-spacing:0em;}.cls-12{letter-spacing:0.01em;}.cls-13{letter-spacing:0em;}.cls-14{font-size:32px;}.cls-15{letter-spacing:0em;}.cls-16,.cls-20{font-size:13px;}.cls-16{font-family:Quicksand-Regular, Quicksand;}.cls-17{letter-spacing:0em;}.cls-18{letter-spacing:0.01em;}.cls-20,.cls-28{font-family:ArialMT, Arial;}.cls-21{fill:#a2b3da;}.cls-22{fill:url(#Naamloos_verloop);}.cls-23,.cls-24,.cls-25,.cls-31{stroke:#9cb4ec;}.cls-23,.cls-25,.cls-30,.cls-31{stroke-width:2px;}.cls-26{stroke:#fff;}.cls-27{stroke:#00c3ff;}.cls-28,.cls-33{font-size:12px;}.cls-30{stroke:url(#Naamloos_verloop_2);}.cls-32{font-size:36px;}.cls-32,.cls-33{font-family:Quicksand-Bold, Quicksand;font-weight:700;}.cls-34{letter-spacing:-0.02em;}</style><linearGradient id="Naamloos_verloop" x1="305.05" y1="549.59" x2="305.05" y2="619.89" gradientTransform="matrix(1, 0, 0, -1, 0, 841.89)" gradientUnits="userSpaceOnUse"><stop offset="0.15" stop-color="#fff"/><stop offset="0.82" stop-color="#aad5e5"/></linearGradient><linearGradient id="Naamloos_verloop_2" x1="407.04" y1="176.07" x2="429.48" y2="176.07" xlink:href="#Naamloos_verloop"/></defs><image class="cls-1" width="499" height="189" transform="translate(132.7 293)" xlink:href="../../Documents/Leerjaar%202/Blok%20Tech/Tech/60806FADAC52CA2A.png"/><path class="cls-2" d="M510.2,539H66.7a12,12,0,0,1-12-12V393.3a12,12,0,0,1,12-12H510.2a12,12,0,0,1,12,12V527A12,12,0,0,1,510.2,539Z" transform="translate(86.7 -79.9)"/><path class="cls-3" d="M510.2,539H66.7a12,12,0,0,1-12-12V393.3a12,12,0,0,1,12-12H510.2a12,12,0,0,1,12,12V527A12,12,0,0,1,510.2,539Z" transform="translate(86.7 -79.9)"/><path class="cls-4" d="M178.4,120.4h44.3a13,13,0,0,1,13,13v44.3a13,13,0,0,1-13,13H178.4a13,13,0,0,1-13-13V133.4A13,13,0,0,1,178.4,120.4Z" transform="translate(86.7 -79.9)"/><path class="cls-5" d="M279,120.4h44.3a13,13,0,0,1,13,13v44.3a13,13,0,0,1-13,13H279a13,13,0,0,1-13-13V133.4A13,13,0,0,1,279,120.4Z" transform="translate(86.7 -79.9)"/><path class="cls-6" d="M77.8,120.4h44.3a13,13,0,0,1,13,13v44.3a13,13,0,0,1-13,13H77.8a13,13,0,0,1-13-13V133.4A13.1,13.1,0,0,1,77.8,120.4Z" transform="translate(86.7 -79.9)"/><path class="cls-7" d="M76.8,222H121a13,13,0,0,1,13,13v44.3a13,13,0,0,1-13,13H76.8a13,13,0,0,1-13-13V235A13,13,0,0,1,76.8,222Z" transform="translate(86.7 -79.9)"/><path class="cls-8" d="M178.4,222h44.3a13,13,0,0,1,13,13v44.3a13,13,0,0,1-13,13H178.4a13,13,0,0,1-13-13V235A13,13,0,0,1,178.4,222Z" transform="translate(86.7 -79.9)"/><path d="M66.9,87.5h2.2V82.7H67.3V81.5a5.58,5.58,0,0,0,2.3-.8H71v6.7h1.9v1.5h-6V87.5Z" transform="translate(86.7 -79.9)"/><path d="M76,87.7a1.5,1.5,0,1,1,3,0,1.42,1.42,0,0,1-1.5,1.5A1.47,1.47,0,0,1,76,87.7Z" transform="translate(86.7 -79.9)"/><path d="M90.1,80.6H92v3.5h.1l2.5-3.5h2.1L92,86.8v2.3H90.1V80.6Zm2.8,4.5L94,83.6,97,89H94.9Z" transform="translate(86.7 -79.9)"/><path d="M99.7,86.5V81.4h-2V79.9h3.9v6.7a1,1,0,0,0,1.1,1.1,4.4,4.4,0,0,0,1-.2l.4,1.4a5.82,5.82,0,0,1-1.9.3C100.5,89.2,99.7,88.2,99.7,86.5Z" transform="translate(86.7 -79.9)"/><path d="M105.5,85.8a3.31,3.31,0,0,1,3.4-3.4,2.81,2.81,0,0,1,3,3.1c0,.3-.1.7-.1.9h-4.9V85.1h3.6l-.3.4c0-1-.4-1.6-1.3-1.6s-1.6.6-1.6,1.9.7,1.9,2,1.9a5.26,5.26,0,0,0,1.7-.4l.6,1.2a4.7,4.7,0,0,1-2.6.8A3.42,3.42,0,0,1,105.5,85.8Z" transform="translate(86.7 -79.9)"/><path d="M113.4,86.6v-4h1.9v3.7c0,.8.2,1.2.9,1.2a1.42,1.42,0,0,0,1.2-.7V82.6h1.9V89h-1.6l-.1-.9h-.1a2.66,2.66,0,0,1-2.2,1.1C114.1,89.2,113.4,88.2,113.4,86.6Z" transform="translate(86.7 -79.9)"/><path d="M121.9,82.6h1.6l.1,1.4h0a2.92,2.92,0,0,1,2.6-1.6,1.92,1.92,0,0,1,1.2.3l-.4,1.6a4.25,4.25,0,0,0-1.1-.2,2.43,2.43,0,0,0-2.2,1.6V89h-1.9l.1-6.4Z" transform="translate(86.7 -79.9)"/><path d="M128.9,85.8a3.31,3.31,0,0,1,3.4-3.4,2.81,2.81,0,0,1,3,3.1c0,.3-.1.7-.1.9h-4.9V85.1h3.6l-.3.4c0-1-.4-1.6-1.3-1.6s-1.6.6-1.6,1.9.7,1.9,2,1.9a5.26,5.26,0,0,0,1.7-.4l.6,1.2a4.7,4.7,0,0,1-2.6.8A3.42,3.42,0,0,1,128.9,85.8Z" transform="translate(86.7 -79.9)"/><path d="M137,82.6h1.6l.1.9h.1a3,3,0,0,1,2.2-1c1.5,0,2.1,1,2.1,2.6v4h-1.9V85.4c0-.9-.2-1.2-.9-1.2a1.57,1.57,0,0,0-1.3.7v4.3h-1.9l-.1-6.6Z" transform="translate(86.7 -79.9)"/><path d="M64.6,356.3c2.2-1.8,3.7-3.1,3.7-4.2,0-.7-.5-1.1-1.3-1.1a2.24,2.24,0,0,0-1.5.8l-.9-.9a3.57,3.57,0,0,1,2.7-1.2,2.45,2.45,0,0,1,2.7,2.4c0,1.3-1.3,2.6-2.8,3.9.4,0,1-.1,1.4-.1h1.8v1.5H64.7l-.1-1.1Z" transform="translate(86.7 -79.9)"/><path d="M73.3,356.1a1.4,1.4,0,1,1,1.4,1.4A1.43,1.43,0,0,1,73.3,356.1Z" transform="translate(86.7 -79.9)"/><path d="M81,351H78.7v-1.5h6.5V351H82.9v6.3H81.1L81,351Z" transform="translate(86.7 -79.9)"/><path d="M86.3,359.5l.3-1.4a.9.9,0,0,0,.5.1c.7,0,1.1-.3,1.2-.8l.1-.3-2.6-5.8h1.8l1,2.6.6,1.8h.1l.6-1.8.9-2.6h1.6l-2.3,6c-.6,1.5-1.3,2.3-2.8,2.3A3.08,3.08,0,0,1,86.3,359.5Z" transform="translate(86.7 -79.9)"/><path d="M93.6,351.4H95l.1.6h0a3,3,0,0,1,1.8-.8c1.5,0,2.4,1.2,2.4,3,0,2-1.2,3.2-2.6,3.2a2.4,2.4,0,0,1-1.5-.6h0l.1,1v1.7H93.5l.1-8.1Zm3.9,2.9c0-1.1-.3-1.6-1.1-1.6a1.82,1.82,0,0,0-1.1.5v2.4a1.43,1.43,0,0,0,1,.4C97,356,97.5,355.5,97.5,354.3Z" transform="translate(86.7 -79.9)"/><path d="M100.5,354.3a3,3,0,1,1,3,3.1A3,3,0,0,1,100.5,354.3Zm4.2,0c0-1-.4-1.7-1.2-1.7s-1.2.7-1.2,1.7.4,1.7,1.2,1.7S104.7,355.4,104.7,354.3Z" transform="translate(86.7 -79.9)"/><path d="M107.7,358.3a1.35,1.35,0,0,1,.9-1.2V357a1.17,1.17,0,0,1-.6-1,1.51,1.51,0,0,1,.7-1.1v-.1a1.87,1.87,0,0,1-.8-1.5,2.33,2.33,0,0,1,2.6-2.2c.3,0,.7.1,1,.1h2.4v1.3h-1.2a1.91,1.91,0,0,1,.3.8c0,1.4-1.1,2-2.4,2a2.49,2.49,0,0,1-.8-.1c-.2.1-.3.2-.3.4s.3.4,1,.4h1.1c1.6,0,2.4.4,2.4,1.5s-1.4,2.1-3.6,2.1C108.9,359.8,107.7,359.4,107.7,358.3Zm4.6-.3c0-.4-.4-.5-1.1-.5h-.8a2.22,2.22,0,0,1-.9-.1.72.72,0,0,0-.4.6c0,.5.6.7,1.5.7S112.3,358.4,112.3,358Zm-.9-4.6a.92.92,0,0,0-.9-1,.87.87,0,0,0-.9,1,.91.91,0,1,0,1.8,0Z" transform="translate(86.7 -79.9)"/><path d="M115.7,351.4h1.5l.1,1.3h0a2.83,2.83,0,0,1,2.4-1.5,3.09,3.09,0,0,1,1.1.2l-.4,1.5a3.59,3.59,0,0,0-1.1-.2,2.27,2.27,0,0,0-2,1.4v3.1h-1.8l.2-5.8Z" transform="translate(86.7 -79.9)"/><path d="M122.2,355.7c0-1.3,1.1-2,3.9-2.2a1.17,1.17,0,0,0-1.3-.9,3.49,3.49,0,0,0-1.8.6l-.6-1.2a5.38,5.38,0,0,1,2.8-.8,2.43,2.43,0,0,1,2.7,2.7v3.4h-1.4l-.1-.7h0a3.44,3.44,0,0,1-2.1.8A1.76,1.76,0,0,1,122.2,355.7Zm4-.2v-1c-1.8.1-2.2.5-2.2,1s.3.6.8.6A2.16,2.16,0,0,0,126.2,355.5Z" transform="translate(86.7 -79.9)"/><path d="M129.6,351.4H131l.1.6h0a3,3,0,0,1,1.8-.8c1.5,0,2.4,1.2,2.4,3,0,2-1.2,3.2-2.6,3.2a2.4,2.4,0,0,1-1.5-.6h0l.1,1v1.7h-1.8l.1-8.1Zm3.9,2.9c0-1.1-.4-1.6-1.1-1.6a1.82,1.82,0,0,0-1.1.5v2.4a1.43,1.43,0,0,0,1,.4C133,356,133.5,355.5,133.5,354.3Z" transform="translate(86.7 -79.9)"/><path d="M136.8,348.9h1.8v2l-.1,1.1h0a2.53,2.53,0,0,1,2-.9c1.3,0,1.9.9,1.9,2.4v3.7h-1.8v-3.5c0-.8-.2-1.1-.9-1.1a1.56,1.56,0,0,0-1.2.6v4h-1.8l.1-8.3Z" transform="translate(86.7 -79.9)"/><path d="M143.9,359.5l.3-1.4a.9.9,0,0,0,.5.1c.7,0,1.1-.3,1.2-.8l.1-.3-2.6-5.8h1.8l1,2.6.6,1.8h.1l.6-1.8.9-2.6h1.7l-2.3,6c-.6,1.5-1.3,2.3-2.8,2.3A3.42,3.42,0,0,1,143.9,359.5Z" transform="translate(86.7 -79.9)"/><rect class="cls-9" x="152.1" y="319" width="193.5" height="36.1"/><text class="cls-10" transform="translate(152.11 342.6)">Quic<tspan class="cls-11" x="83.36" y="0">k</tspan><tspan class="cls-12" x="105.36" y="0">s</tspan><tspan class="cls-13" x="124.76" y="0">and</tspan></text><rect class="cls-9" x="152.1" y="367.3" width="193.5" height="36.1"/><text class="cls-14" transform="translate(152.11 385.27)">Quic<tspan class="cls-15" x="66.69" y="0">k</tspan><tspan class="cls-12" x="84.29" y="0">s</tspan><tspan x="99.81" y="0">and</tspan></text><text class="cls-16" transform="translate(153.41 426.71)">Quic<tspan class="cls-17" x="26.94" y="0">k</tspan><tspan class="cls-18" x="33.83" y="0">s</tspan><tspan x="40.03" y="0">and, Arial</tspan></text><line class="cls-19" x1="152.1" y1="350.8" x2="578.7" y2="350.8"/><line class="cls-19" x1="152.1" y1="391.7" x2="578.7" y2="391.7"/><line class="cls-19" x1="152.1" y1="431.6" x2="578.7" y2="431.6"/><rect class="cls-9" x="551.3" y="326" width="39" height="14.8"/><text class="cls-20" transform="translate(551.32 335.35)">40px</text><rect class="cls-9" x="549.9" y="366.9" width="39" height="14.8"/><text class="cls-20" transform="translate(549.9 376.21)">32px</text><rect class="cls-9" x="532.5" y="408.1" width="51.8" height="18.1"/><text class="cls-20" transform="translate(532.49 417.45)">13.3xpx</text><rect class="cls-21" x="153.9" y="14" width="99.3" height="2.2"/><rect class="cls-6" x="150.9" y="281.6" width="99.2" height="2.2"/><path class="cls-22" d="M282.9,222h44.3a13,13,0,0,1,13,13v44.3a13,13,0,0,1-13,13H282.9a13,13,0,0,1-13-13V235A12.91,12.91,0,0,1,282.9,222Z" transform="translate(86.7 -79.9)"/><path class="cls-19" d="M-71.8,681.3a7.39,7.39,0,0,0-3.8-4.5c-3.2-1.4-6.8.4-8.6,2.5-2.1,2.4-2,5.5-2,6.9a14.7,14.7,0,0,0,2.1,6.7,32,32,0,0,0,4.5,6.5c1.9,2.2,4.4,5.1,7.7,8.3a70.4,70.4,0,0,0,7.9-8.4,33.15,33.15,0,0,0,4.7-7,14.36,14.36,0,0,0,1.8-6.5c0-1.6.1-4.8-2.3-7.2-1.8-1.8-5.2-3.2-8.3-1.8A7.76,7.76,0,0,0-71.8,681.3Z" transform="translate(86.7 -79.9)"/><path d="M68.7,600.4l.8-1.1a3.26,3.26,0,0,0,1.9.8c.8,0,1.4-.3,1.4-.9s-.5-1.1-2.3-1.1v-1.2c1.5,0,2.1-.4,2.1-1s-.4-.8-1.1-.8a2.13,2.13,0,0,0-1.6.7l-.9-1.1a4,4,0,0,1,2.6-1c1.7,0,2.8.8,2.8,2.1,0,.8-.5,1.3-1.5,1.7h0a1.93,1.93,0,0,1,1.7,1.9c0,1.4-1.4,2.2-3,2.2A4.59,4.59,0,0,1,68.7,600.4Z" transform="translate(86.7 -79.9)"/><path d="M77.6,600.1a1.4,1.4,0,1,1,1.4,1.4A1.37,1.37,0,0,1,77.6,600.1Z" transform="translate(86.7 -79.9)"/><path d="M83.5,599.8h1.8V595H83.5v-1.5h5.4V595H87.1v4.8h1.8v1.5H83.5Z" transform="translate(86.7 -79.9)"/><path d="M90.6,598.4a3.42,3.42,0,0,1,5.6-2.3l-.8,1.1a2.35,2.35,0,0,0-1.3-.5,1.7,1.7,0,1,0,0,3.4,3.14,3.14,0,0,0,1.6-.6l.7,1.1a3.78,3.78,0,0,1-2.4.9A3.13,3.13,0,0,1,90.6,598.4Z" transform="translate(86.7 -79.9)"/><path d="M97.6,598.4a3,3,0,1,1,3,3.1A3,3,0,0,1,97.6,598.4Zm4.2,0c0-1-.4-1.7-1.2-1.7s-1.2.7-1.2,1.7.4,1.7,1.2,1.7S101.8,599.4,101.8,598.4Z" transform="translate(86.7 -79.9)"/><path d="M105.1,595.4h1.4l.1.8h.1a2.93,2.93,0,0,1,2.1-.9c1.3,0,1.9.9,1.9,2.4v3.7h-1.8v-3.5c0-.8-.2-1.1-.9-1.1a1.56,1.56,0,0,0-1.2.6v4H105l.1-6Z" transform="translate(86.7 -79.9)"/><path d="M112.1,598.3a3,3,0,0,1,3.1-3.1,2.65,2.65,0,0,1,2.8,2.9c0,.3-.1.6-.1.8h-4.5v-1.2h3.3l-.3.3q0-1.5-1.2-1.5c-.9,0-1.4.6-1.4,1.8a1.63,1.63,0,0,0,1.8,1.8,4.19,4.19,0,0,0,1.5-.4l.6,1.1a5.13,5.13,0,0,1-2.4.7A3,3,0,0,1,112.1,598.3Z" transform="translate(86.7 -79.9)"/><path d="M119.5,595.4h1.4l.1.8h.1a2.93,2.93,0,0,1,2.1-.9c1.3,0,1.9.9,1.9,2.4v3.7h-1.8v-3.5c0-.8-.2-1.1-.9-1.1a1.56,1.56,0,0,0-1.2.6v4h-1.8l.1-6Z" transform="translate(86.7 -79.9)"/><rect class="cls-6" x="150.2" y="525.6" width="99.3" height="2.2"/><circle class="cls-23" cx="175.6" cy="570.9" r="24"/><path class="cls-24" d="M88.9,641.4a7.39,7.39,0,0,0-3.8-4.5c-3.2-1.4-6.8.4-8.6,2.5-2.1,2.4-2,5.5-2,6.9a14.7,14.7,0,0,0,2.1,6.7,32,32,0,0,0,4.5,6.5c1.9,2.2,4.4,5.1,7.7,8.3a70.4,70.4,0,0,0,7.9-8.4,33.15,33.15,0,0,0,4.7-7,14.36,14.36,0,0,0,1.8-6.5c0-1.6.1-4.8-2.3-7.2-1.8-1.8-5.2-3.2-8.3-1.8A8.06,8.06,0,0,0,88.9,641.4Z" transform="translate(86.7 -79.9)"/><polyline class="cls-24" points="175.7 561.4 174.6 565 176.9 565.6 174.1 568 178.3 571.5 175.1 575.3 178.3 575.3 174.1 582 176.2 585.2 175.5 588"/><circle class="cls-25" cx="237.8" cy="571.5" r="24"/><path class="cls-26" d="M151.1,642.4a7.39,7.39,0,0,0-3.8-4.5c-3.2-1.4-6.8.4-8.6,2.5-2.1,2.4-2,5.5-2,6.9a14.7,14.7,0,0,0,2.1,6.7,32,32,0,0,0,4.5,6.5c1.9,2.2,4.4,5.1,7.7,8.3a70.4,70.4,0,0,0,7.9-8.4,33.15,33.15,0,0,0,4.7-7,14.36,14.36,0,0,0,1.8-6.5c0-1.6.1-4.8-2.3-7.2-1.8-1.8-5.2-3.2-8.3-1.8A8.06,8.06,0,0,0,151.1,642.4Z" transform="translate(86.7 -79.9)"/><g id="Laag_2" data-name="Laag 2"><path class="cls-27" d="M-26.9,680.6a5.78,5.78,0,0,0-1.8-2.6,6.15,6.15,0,0,0-3.2-1.6,7.44,7.44,0,0,0-6,1.8,8.73,8.73,0,0,0-2.5,3.1,8.33,8.33,0,0,0-.7,3.5,13.19,13.19,0,0,0,.8,5.4,16.88,16.88,0,0,0,1.9,3.8,37.23,37.23,0,0,0,3.4,4.7c.6.7,2.7,3.4,6,6.8.9,1,1.7,1.7,2.3,2.3" transform="translate(86.7 -79.9)"/></g><rect class="cls-9" x="151.2" y="116.1" width="70.6" height="13.7"/><text class="cls-28" transform="translate(164.02 124.61)">#9Cb4EC</text><rect class="cls-9" x="357.8" y="217.2" width="69.1" height="25.6"/><g class="cls-29"><text class="cls-28" transform="translate(368.93 225.72)">#AAD5E5</text><text class="cls-28" transform="translate(369.83 240.12)">/#FFFFFF</text></g><rect class="cls-9" x="258.2" y="218.1" width="60.1" height="12.6"/><text class="cls-28" transform="translate(267.69 226.62)">#FFFFFF</text><rect class="cls-9" x="153.7" y="218.1" width="60.1" height="12.6"/><text class="cls-28" transform="translate(162.72 226.62)">#F5F4F5</text><rect class="cls-9" x="357.8" y="116.6" width="60.1" height="12.6"/><text class="cls-28" transform="translate(364.49 125.19)">#000000</text><rect class="cls-9" x="258.2" y="116.6" width="60.1" height="12.6"/><text class="cls-28" transform="translate(264.77 125.12)">#AAD5E5</text><rect class="cls-4" x="367.42" y="543.4" width="197.8" height="76.7"/><g id="Laag_2-2" data-name="Laag 2"><path class="cls-30" d="M428.52,649.4a8.08,8.08,0,0,0-2.6-3.7,8.72,8.72,0,0,0-4.6-2.3c-4.3-.9-7.8,1.9-8.6,2.6a13.31,13.31,0,0,0-3.6,4.5,11.33,11.33,0,0,0-1,5,19.72,19.72,0,0,0,1.1,7.8,25.56,25.56,0,0,0,2.7,5.5,61.2,61.2,0,0,0,4.9,6.8c.9,1,3.9,4.9,8.6,9.8,1.3,1.4,2.4,2.4,3.3,3.3" transform="translate(86.7 -79.9)"/></g><g id="Laag_2-3" data-name="Laag 2"><path class="cls-31" d="M429.22,688.5c.9-.9,2-1.9,3.3-3.3,4.7-4.9,7.8-8.8,8.6-9.8a53.13,53.13,0,0,0,4.9-6.8,25.56,25.56,0,0,0,2.7-5.5,19.72,19.72,0,0,0,1.1-7.8,11.33,11.33,0,0,0-1-5,13.17,13.17,0,0,0-3.6-4.5c-.9-.7-4.3-3.4-8.6-2.6a8.72,8.72,0,0,0-4.6,2.3,8.62,8.62,0,0,0-2.6,3.7" transform="translate(86.7 -79.9)"/></g><rect class="cls-9" x="389.52" y="568.7" width="110.5" height="34.4"/><text class="cls-32" transform="translate(394.74 594.47)">Lufmi</text><rect class="cls-6" x="368" y="526.7" width="99.3" height="2.2"/><text class="cls-33" transform="translate(368.97 520.89)">4. Lo<tspan class="cls-34" x="28.96" y="0">g</tspan><tspan x="36.31" y="0">o</tspan></text></svg>